<svg id="credit-card_5_" data-name="credit-card (5)" xmlns="http://www.w3.org/2000/svg" xmlns:xlink="http://www.w3.org/1999/xlink" width="73" height="63.873" viewBox="0 0 73 63.873">
  <defs>
    <linearGradient id="linear-gradient" x1="0.5" x2="0.5" y2="1" gradientUnits="objectBoundingBox">
      <stop offset="0" stop-color="#1e45c3"/>
      <stop offset="1" stop-color="#0e2099"/>
    </linearGradient>
  </defs>
  <g id="Group_1860" data-name="Group 1860" transform="translate(0 13.685)">
    <g id="Group_1859" data-name="Group 1859" transform="translate(0 0)">
      <path id="Path_317" data-name="Path 317" d="M31.937,24.561V20H4.562A4.57,4.57,0,0,0,0,24.561v9.125H32.9A40.85,40.85,0,0,1,31.937,24.561Z" transform="translate(0 -19.999)" fill="url(#linear-gradient)"/>
    </g>
  </g>
  <g id="Group_1862" data-name="Group 1862" transform="translate(0 36.498)">
    <g id="Group_1861" data-name="Group 1861">
      <path id="Path_318" data-name="Path 318" d="M72.813,45c-3.112,4.8-7.857,8.874-14.655,12.78a6.855,6.855,0,0,1-6.8.009c-6.8-3.915-11.543-8-14.659-12.789H0V67.811a4.567,4.567,0,0,0,4.562,4.562H68.438A4.564,4.564,0,0,0,73,67.811V45h-.187ZM20.531,58.686H11.406a2.281,2.281,0,1,1,0-4.562h9.125a2.281,2.281,0,1,1,0,4.562Z" transform="translate(0 -44.999)" fill="url(#linear-gradient)"/>
    </g>
  </g>
  <g id="Group_1864" data-name="Group 1864" transform="translate(36.5 0)">
    <g id="Group_1863" data-name="Group 1863">
      <path id="Path_319" data-name="Path 319" d="M75.118,12.03,59.149,5.186a2.289,2.289,0,0,0-1.8,0L41.378,12.03A2.276,2.276,0,0,0,40,14.124v9.125C40,35.8,44.64,43.137,57.114,50.323a2.294,2.294,0,0,0,2.272,0C71.86,43.155,76.5,35.819,76.5,23.249V14.124A2.273,2.273,0,0,0,75.118,12.03ZM66.878,22.4,57.753,33.8a2.306,2.306,0,0,1-1.784.853h-.1a2.29,2.29,0,0,1-1.8-1.013L49.508,26.8a2.28,2.28,0,1,1,3.8-2.528l2.833,4.248,7.172-8.97A2.282,2.282,0,0,1,66.878,22.4Z" transform="translate(-40 -5.001)" fill="url(#linear-gradient)"/>
    </g>
  </g>
</svg>
